M48
;Layer_Color=9474304
;FILE_FORMAT=2:4
INCH,LZ
;TYPE=PLATED
T1F00S00C0.0100
T2F00S00C0.0101
T3F00S00C0.0276
T4F00S00C0.0300
%
T01
X003415Y001978
X00302Y002448
X005374Y00253
X005787Y002638
X005128Y003169
X006306Y004045
X006959Y005059
Y006821
X007008Y007264
X00761Y00751
X007323Y008071
X008524Y008583
X008425Y009006
X009524Y009069
X009321Y008563
X009203Y010925
X010431Y011988
X010591Y012549
X00726Y012504
X007274Y012057
X005492Y011821
X005866Y011086
X005433Y010659
X005482Y009911
X005837Y009262
X005748Y00873
X005522Y008012
X005305Y007333
X005541Y006909
X005561Y005935
X003665Y00688
X003672Y00748
X003731Y008652
X003445Y008839
X003542Y010139
X003742Y010669
X003642Y012717
X002492Y012601
X010354Y006978
X010344Y006102
X000256Y007717
X000335Y008287
X000203Y012046
X000217Y012618
X0019Y01248
X002067Y010846
X00211Y01313
X002106Y014587
X001919Y015492
X002116Y017451
X001713Y017549
X001762Y018041
X000587Y018209
X000965Y019075
X001673Y019616
X001102Y01373
X003455Y013287
X003526Y014742
X003658Y015166
X00373Y015748
X003724Y016715
X00373Y018907
X003337Y019518
X005089Y018868
X005517Y01809
X005482Y017549
X005492Y01565
X005103Y015238
X005492Y01376
X007215Y014134
X007292Y014588
X008317Y01373
X00812Y013415
X009044Y0131
X009626Y013789
X009291Y014232
X010463Y01435
X010541Y014931
X009833Y016102
X009331Y016299
X009094Y015482
X0069Y016506
X006943Y017095
X007372Y017969
X005167Y020837
X002612Y015122
T02
X004075Y003937
X004094Y005896
X003586Y006417
X003759Y008033
X004281Y010207
X003179Y01127
X00685Y011732
X008563Y011368
X009114Y009459
X00687Y007707
X006654Y0056
X00561Y004488
X009498Y000354
X002008Y000669
X001014Y009026
X00064Y010925
X000591Y015787
X003127Y015456
X004272Y013898
X006565Y013947
X007303Y013533
X008907Y014301
X007884Y015551
X006565Y015433
X005374Y01624
X006713Y017667
X007549Y019528
X006841Y021299
X004094Y021368
X003839Y017825
X010443Y015541
X010463Y013159
T03
X002756Y002087
Y002874
Y003661
Y004449
Y005236
Y006024
Y006811
Y007598
X008228Y007677
Y00689
Y006102
Y005315
Y004528
Y00374
Y002953
Y002165
Y016575
Y017362
Y01815
Y018937
Y019724
Y020512
X002756Y020517
Y019729
Y018942
Y018155
Y017367
Y01658
T04
X010167Y000738
X000945Y000778
M30
