G04*
G04 #@! TF.GenerationSoftware,Altium Limited,Altium Designer,20.1.12 (249)*
G04*
G04 Layer_Physical_Order=4*
G04 Layer_Color=16711680*
%FSLAX25Y25*%
%MOIN*%
G70*
G04*
G04 #@! TF.SameCoordinates,9E92894B-ADF9-450B-81D9-0332103B8D06*
G04*
G04*
G04 #@! TF.FilePolarity,Positive*
G04*
G01*
G75*
%ADD12C,0.01000*%
%ADD27C,0.04000*%
%ADD28C,0.02000*%
%ADD29C,0.01772*%
%ADD30C,0.04724*%
D12*
X81890Y120571D02*
X82677Y119783D01*
Y91634D02*
X84252Y90059D01*
X82677Y91634D02*
Y119783D01*
X85236Y85827D02*
X88386Y88976D01*
X73819Y123819D02*
X87800D01*
X88386Y123233D01*
Y88976D02*
Y123233D01*
X96653Y138287D02*
Y159350D01*
X96260Y137894D02*
X96653Y138287D01*
X92913Y142323D02*
X93012D01*
X94095Y143405D01*
X87603Y139997D02*
X90318D01*
X96835Y133480D01*
X86491Y140970D02*
X86630D01*
X87603Y139997D01*
X96835Y130626D02*
Y133480D01*
X95235Y90690D02*
Y129174D01*
X74114Y139370D02*
X85039D01*
X95235Y129174D01*
X78145Y134153D02*
X81201D01*
X78642Y137303D02*
X83169D01*
X63878Y167519D02*
Y169845D01*
X73721Y179688D02*
X73721D01*
X63878Y169845D02*
X73721Y179688D01*
X55610Y64961D02*
X58202Y62369D01*
Y26706D02*
Y62369D01*
X57874Y26378D02*
X58202Y26706D01*
X53740Y25295D02*
Y57975D01*
X29528Y78400D02*
X30709Y77219D01*
X33909Y69934D02*
Y78544D01*
X32160Y70448D02*
X32309Y70597D01*
X32299Y21638D02*
Y45973D01*
X32160Y46113D02*
Y70448D01*
Y46113D02*
X32299Y45973D01*
X33760Y52426D02*
X37894Y48292D01*
X32309Y70597D02*
Y77881D01*
X33787Y78666D02*
X33909Y78544D01*
X32187Y78003D02*
X32309Y77881D01*
X27559Y68110D02*
X30709Y71260D01*
Y77219D01*
X33760Y52426D02*
Y69785D01*
X33909Y69934D01*
X32187Y81684D02*
X34449Y83946D01*
X32187Y78003D02*
Y81684D01*
X33787Y79494D02*
X37525Y83232D01*
X32299Y21638D02*
X34154Y19783D01*
X33787Y78666D02*
Y79494D01*
X27559Y90551D02*
X47752Y110744D01*
X33857Y100984D02*
X35022D01*
X27559Y75984D02*
Y90551D01*
X35022Y100984D02*
X35425Y101386D01*
X47752Y110744D02*
X58547D01*
X2617Y77165D02*
X6726Y81274D01*
X21234Y94365D02*
X27237D01*
X3347Y82874D02*
X7480D01*
X20571Y95965D02*
X26575D01*
X7480Y82874D02*
X20571Y95965D01*
X8143Y81274D02*
X21234Y94365D01*
X6726Y81274D02*
X8143D01*
X18996Y124803D02*
Y134350D01*
X11516Y141831D02*
Y187500D01*
Y141831D02*
X18996Y134350D01*
X63976Y122638D02*
X78642Y137303D01*
X66240Y122249D02*
X78145Y134153D01*
X66240Y88189D02*
X73228Y81201D01*
X66240Y88189D02*
Y122249D01*
X33366Y149311D02*
X35260Y147417D01*
X33366Y149311D02*
Y195177D01*
X22047Y146850D02*
X27761D01*
X28346Y147436D02*
Y163711D01*
X35138Y153246D02*
X36581Y151803D01*
X35138Y179724D02*
X37303Y181890D01*
X37238Y167152D02*
Y167454D01*
X35138Y153246D02*
Y179724D01*
X37238Y167454D02*
X50679Y180896D01*
X27559Y165797D02*
X28133Y165223D01*
Y163925D02*
Y165223D01*
Y163925D02*
X28346Y163711D01*
X27761Y146850D02*
X28346Y147436D01*
X24902Y126028D02*
Y133957D01*
X14272Y144587D02*
Y184843D01*
Y144587D02*
X24902Y133957D01*
X51378Y75000D02*
X53051Y73327D01*
X51378Y86910D02*
X57469Y93001D01*
X51378Y75000D02*
Y86910D01*
X55413Y69095D02*
X58858Y72539D01*
X57480Y87303D02*
X58858Y85925D01*
Y72539D02*
Y85925D01*
X96835Y130626D02*
X98228Y129232D01*
X84449Y143012D02*
X86491Y140970D01*
X94095Y143405D02*
Y162021D01*
X93307Y162808D02*
X94095Y162021D01*
X93307Y162808D02*
Y162992D01*
X96653Y159350D02*
X98327Y161024D01*
X68963Y50591D02*
X69587D01*
X66237Y47865D02*
X68963Y50591D01*
X66237Y38777D02*
Y47865D01*
X65158Y37697D02*
X66237Y38777D01*
X75098Y75098D02*
X76100D01*
X63976Y86221D02*
Y122638D01*
Y86221D02*
X75098Y75098D01*
X73228Y80709D02*
Y81201D01*
X72146Y141339D02*
X74114Y139370D01*
X72918Y145881D02*
X75787Y143012D01*
X84449D01*
X98228Y86216D02*
Y129232D01*
X76378Y33563D02*
Y61417D01*
X69587Y68209D02*
X76378Y61417D01*
Y33563D02*
X79874Y30067D01*
X78150Y35039D02*
Y65748D01*
X70079Y72638D02*
X70256Y72461D01*
X71437D01*
X78150Y65748D01*
X43993Y62700D02*
X49016D01*
X53740Y57975D01*
X46063Y64961D02*
X55610D01*
X38079Y68614D02*
X43993Y62700D01*
X36647Y68799D02*
X36832Y68614D01*
X38079D01*
X45295Y65728D02*
X46063Y64961D01*
X65158Y22047D02*
Y37697D01*
X63058Y40453D02*
X63090Y40420D01*
X52264Y9154D02*
X65158Y22047D01*
X63090Y24016D02*
Y40420D01*
X50197Y11122D02*
X63090Y24016D01*
X72597Y125041D02*
X73819Y123819D01*
X72597Y125041D02*
X72597D01*
X72736Y120571D02*
X81890D01*
X37894Y16137D02*
Y48292D01*
X31269Y15551D02*
X37308D01*
X30683Y16137D02*
Y23737D01*
X37308Y15551D02*
X37894Y16137D01*
X30683D02*
X31269Y15551D01*
X36722Y74301D02*
Y74803D01*
Y74301D02*
X45295Y65728D01*
X24902Y126028D02*
X24917Y126012D01*
X34547Y141240D02*
X38484Y145177D01*
X34547Y132874D02*
Y141240D01*
X58547Y110744D02*
X58661Y110858D01*
X58501Y93001D02*
X58884Y92618D01*
X58366D02*
X58884D01*
X104313Y119882D02*
X104505Y119691D01*
X107087Y77953D02*
Y124311D01*
X82284Y53150D02*
X107087Y77953D01*
X105905Y125492D02*
X107087Y124311D01*
X84890Y61367D02*
X104699Y81176D01*
X104505Y118991D02*
Y119691D01*
X104699Y81176D02*
Y118796D01*
X104505Y118991D02*
X104699Y118796D01*
X29031Y11122D02*
X50197D01*
X27559Y20054D02*
Y20866D01*
Y20054D02*
X28445Y19169D01*
Y11708D02*
Y19169D01*
Y11708D02*
X29031Y11122D01*
X21358Y28740D02*
X27559D01*
X19783Y27165D02*
X21358Y28740D01*
X19783Y19193D02*
Y27165D01*
X19685Y19094D02*
X19783Y19193D01*
X19685Y16732D02*
Y19094D01*
Y16732D02*
X27264Y9154D01*
X52264D01*
X57469Y93001D02*
X58501D01*
X37525Y83232D02*
Y86307D01*
X37738Y86520D01*
X37305D02*
X37738D01*
X45295Y65728D02*
X45295D01*
X34449Y83946D02*
Y88386D01*
X30199Y24221D02*
X30683Y23737D01*
X30199Y24221D02*
Y24483D01*
X29528Y78400D02*
Y87205D01*
X38878Y96555D02*
X44291D01*
X29528Y87205D02*
X38878Y96555D01*
X44291D02*
X54331Y106595D01*
X78150Y35039D02*
X79724Y33465D01*
X86028D01*
X86614Y25295D02*
Y32879D01*
X86028Y33465D02*
X86614Y32879D01*
X82972Y21654D02*
X86614Y25295D01*
X82284Y21654D02*
X82972D01*
X81744Y30067D02*
X82284Y29528D01*
X79874Y30067D02*
X81744D01*
X82284Y37402D02*
X103445Y58563D01*
Y61024D01*
X103543Y66535D02*
Y69784D01*
X82284Y45276D02*
X103543Y66535D01*
X82284Y61024D02*
X82626Y61367D01*
X84890D01*
X106988Y141437D02*
Y147736D01*
X105413Y149311D02*
X106988Y147736D01*
X101575Y81988D02*
Y82777D01*
X101895Y83097D01*
Y136344D01*
X106988Y141437D01*
X93307Y76772D02*
X100295Y83760D01*
Y139173D02*
X104626Y143504D01*
X100295Y83760D02*
Y139173D01*
X82284Y76772D02*
X93307D01*
X88484Y68898D02*
X101575Y81988D01*
X82284Y68898D02*
X88484D01*
X26124Y151223D02*
Y151649D01*
X21260Y156513D02*
X26124Y151649D01*
X11516Y187500D02*
X15902Y191886D01*
X16732Y196020D02*
Y196161D01*
X15902Y195190D02*
X16732Y196020D01*
X15902Y191886D02*
Y195190D01*
X8169Y189272D02*
X9646Y190748D01*
X14272Y184843D02*
X19390Y189961D01*
Y198031D02*
X25567Y204209D01*
X19390Y189961D02*
Y198031D01*
X8169Y126601D02*
Y189272D01*
X26747Y205167D02*
X27559D01*
X25789Y204209D02*
X26747Y205167D01*
X25567Y204209D02*
X25789D01*
X17126Y179712D02*
X17618Y180205D01*
Y180413D01*
X17126Y175492D02*
Y179712D01*
X37303Y157480D02*
X42405Y152378D01*
X21063Y145866D02*
X22047Y146850D01*
X27510Y173671D02*
X27559D01*
X21260Y167421D02*
X27510Y173671D01*
X21260Y156513D02*
Y167421D01*
X42405Y152378D02*
X51034D01*
X46850Y145177D02*
X63262Y161589D01*
Y166903D01*
X63878Y167519D01*
X64862Y159941D02*
Y166240D01*
X47736Y142815D02*
X64862Y159941D01*
Y166240D02*
X66978Y168356D01*
X38484Y145177D02*
X46850D01*
X42126Y142815D02*
X47736D01*
X37579Y138268D02*
X42126Y142815D01*
X66978Y168356D02*
X69241D01*
X68996Y165059D02*
X73721D01*
X37579Y132114D02*
Y138268D01*
X69241Y168356D02*
Y170767D01*
X69427Y170953D01*
X21161Y183021D02*
X27559Y189419D01*
X21161Y174508D02*
Y183021D01*
X73721Y165059D02*
X82284Y173622D01*
X93209Y85630D02*
X97643D01*
X98228Y86216D01*
X85236Y85827D02*
X85236D01*
X37303Y181890D02*
Y189075D01*
X2559Y77165D02*
X2617D01*
X37303Y106693D02*
X37419D01*
X26575Y95965D02*
X37303Y106693D01*
X27237Y94365D02*
X33857Y100984D01*
X36417Y127165D02*
Y130953D01*
X37579Y132114D01*
X36581Y151659D02*
Y151803D01*
X50679Y180896D02*
X55174D01*
X2028Y120459D02*
X8169Y126601D01*
X2165Y178381D02*
X5870Y182085D01*
X2165Y126181D02*
Y178381D01*
D27*
X27559Y28740D02*
D03*
Y20866D02*
D03*
Y36614D02*
D03*
Y44488D02*
D03*
Y52362D02*
D03*
Y60236D02*
D03*
Y68110D02*
D03*
Y75984D02*
D03*
X82284Y68898D02*
D03*
Y76772D02*
D03*
Y61024D02*
D03*
Y53150D02*
D03*
Y45276D02*
D03*
Y37402D02*
D03*
Y29528D02*
D03*
Y21654D02*
D03*
X27559Y205167D02*
D03*
Y197293D02*
D03*
Y189419D02*
D03*
Y181545D02*
D03*
Y165797D02*
D03*
Y173671D02*
D03*
X82284Y165748D02*
D03*
Y173622D02*
D03*
Y181496D02*
D03*
Y189370D02*
D03*
Y205118D02*
D03*
Y197244D02*
D03*
D28*
X68701Y77067D02*
D03*
X85630Y113681D02*
D03*
X89075Y143012D02*
D03*
X90444Y130995D02*
D03*
X67126Y176673D02*
D03*
X56102Y44882D02*
D03*
X37588Y80325D02*
D03*
X35860Y64173D02*
D03*
X35425Y101386D02*
D03*
X42815Y102067D02*
D03*
X10138Y90256D02*
D03*
X21096Y131299D02*
D03*
X11024Y137303D02*
D03*
X24917Y126012D02*
D03*
X18996Y124803D02*
D03*
X73032Y135335D02*
D03*
X68504Y117323D02*
D03*
X31266Y154557D02*
D03*
X37238Y167152D02*
D03*
X55216Y80118D02*
D03*
X90945Y154823D02*
D03*
X38386Y178248D02*
D03*
X40945Y213681D02*
D03*
X69587Y50591D02*
D03*
X65650Y154331D02*
D03*
X70079Y72638D02*
D03*
X69587Y68209D02*
D03*
X63058Y40453D02*
D03*
X72597Y125041D02*
D03*
X72736Y120571D02*
D03*
X75492Y195276D02*
D03*
X68405Y212992D02*
D03*
X53740Y162402D02*
D03*
X5906Y157874D02*
D03*
X42717Y138976D02*
D03*
X65650Y139469D02*
D03*
X78839Y155512D02*
D03*
X104429Y155413D02*
D03*
X104626Y131595D02*
D03*
X91142Y94587D02*
D03*
X31791Y112697D02*
D03*
X6398Y109252D02*
D03*
X40748Y39370D02*
D03*
X40945Y58957D02*
D03*
X66535Y56004D02*
D03*
X94980Y3543D02*
D03*
X20079Y6693D02*
D03*
X51279Y31693D02*
D03*
X50886Y188681D02*
D03*
X51673Y208366D02*
D03*
X36647Y68799D02*
D03*
X36722Y74803D02*
D03*
X58366Y92618D02*
D03*
X57480Y87303D02*
D03*
X53051Y73327D02*
D03*
X34547Y132874D02*
D03*
X58661Y110858D02*
D03*
X92028Y109252D02*
D03*
X72918Y145881D02*
D03*
X72146Y141339D02*
D03*
X104313Y119882D02*
D03*
X55413Y69095D02*
D03*
X37305Y86520D02*
D03*
X34449Y88386D02*
D03*
X30199Y24483D02*
D03*
X54331Y106595D02*
D03*
X103445Y61024D02*
D03*
X103543Y69784D02*
D03*
X105905Y125492D02*
D03*
X104626Y143504D02*
D03*
X105413Y149311D02*
D03*
X26124Y151223D02*
D03*
X3347Y82874D02*
D03*
X16732Y196161D02*
D03*
X9646Y190748D02*
D03*
X17126Y175492D02*
D03*
X17618Y180413D02*
D03*
X37303Y157480D02*
D03*
X21063Y145866D02*
D03*
X51034Y152378D02*
D03*
X68996Y165059D02*
D03*
X69427Y170953D02*
D03*
X21161Y174508D02*
D03*
X55610Y59350D02*
D03*
X54823Y99114D02*
D03*
X20669Y108465D02*
D03*
X19193Y154921D02*
D03*
X95235Y90690D02*
D03*
X85236Y85827D02*
D03*
X84252Y90059D02*
D03*
X54921Y118209D02*
D03*
Y137598D02*
D03*
Y156496D02*
D03*
X54823Y175492D02*
D03*
X2559Y77165D02*
D03*
X37419Y106693D02*
D03*
X34154Y19783D02*
D03*
X93209Y85630D02*
D03*
X35260Y147417D02*
D03*
X36417Y127165D02*
D03*
X73721Y179688D02*
D03*
X36581Y151659D02*
D03*
X37303Y189075D02*
D03*
X33366Y195177D02*
D03*
X2165Y126181D02*
D03*
X5870Y182085D02*
D03*
X2028Y120459D02*
D03*
X55174Y180896D02*
D03*
D29*
X96260Y137894D02*
D03*
X92913Y142323D02*
D03*
X83169Y137303D02*
D03*
X81201Y134153D02*
D03*
X76100Y75098D02*
D03*
X73228Y80709D02*
D03*
X93307Y162992D02*
D03*
X53740Y25295D02*
D03*
X57874Y26378D02*
D03*
X98327Y161024D02*
D03*
D30*
X9449Y7776D02*
D03*
X101673Y7382D02*
D03*
M02*
