G04*
G04 #@! TF.GenerationSoftware,Altium Limited,Altium Designer,20.1.12 (249)*
G04*
G04 Layer_Physical_Order=3*
G04 Layer_Color=128*
%FSLAX25Y25*%
%MOIN*%
G70*
G04*
G04 #@! TF.SameCoordinates,9E92894B-ADF9-450B-81D9-0332103B8D06*
G04*
G04*
G04 #@! TF.FilePolarity,Negative*
G04*
G01*
G75*
%ADD31C,0.04000*%
%ADD32C,0.06756*%
%ADD33C,0.05008*%
%ADD34C,0.05000*%
G04:AMPARAMS|DCode=35|XSize=70mil|YSize=70mil|CornerRadius=0mil|HoleSize=0mil|Usage=FLASHONLY|Rotation=0.000|XOffset=0mil|YOffset=0mil|HoleType=Round|Shape=Relief|Width=10mil|Gap=10mil|Entries=4|*
%AMTHD35*
7,0,0,0.07000,0.05000,0.01000,45*
%
%ADD35THD35*%
G04:AMPARAMS|DCode=36|XSize=90mil|YSize=90mil|CornerRadius=0mil|HoleSize=0mil|Usage=FLASHONLY|Rotation=0.000|XOffset=0mil|YOffset=0mil|HoleType=Round|Shape=Relief|Width=10mil|Gap=10mil|Entries=4|*
%AMTHD36*
7,0,0,0.09000,0.07000,0.01000,45*
%
%ADD36THD36*%
G04:AMPARAMS|DCode=37|XSize=70.079mil|YSize=70.079mil|CornerRadius=0mil|HoleSize=0mil|Usage=FLASHONLY|Rotation=0.000|XOffset=0mil|YOffset=0mil|HoleType=Round|Shape=Relief|Width=10mil|Gap=10mil|Entries=4|*
%AMTHD37*
7,0,0,0.07008,0.05008,0.01000,45*
%
%ADD37THD37*%
%ADD38C,0.07000*%
D31*
X0Y0D02*
X110000D01*
X110000Y216535D02*
X110000Y0D01*
X0Y216535D02*
X110000D01*
X0Y0D02*
Y216535D01*
D32*
X27559Y28740D02*
D03*
Y20866D02*
D03*
Y36614D02*
D03*
Y44488D02*
D03*
Y52362D02*
D03*
Y60236D02*
D03*
Y68110D02*
D03*
Y75984D02*
D03*
X82284Y68898D02*
D03*
Y76772D02*
D03*
Y61024D02*
D03*
Y53150D02*
D03*
Y45276D02*
D03*
Y37402D02*
D03*
Y29528D02*
D03*
Y21654D02*
D03*
X27559Y205167D02*
D03*
Y197293D02*
D03*
Y189419D02*
D03*
Y181545D02*
D03*
Y165797D02*
D03*
Y173671D02*
D03*
X82284Y165748D02*
D03*
Y173622D02*
D03*
Y181496D02*
D03*
Y189370D02*
D03*
Y205118D02*
D03*
Y197244D02*
D03*
D33*
X20079Y6693D02*
D03*
D34*
X96260Y137894D02*
D03*
X92913Y142323D02*
D03*
X90444Y130995D02*
D03*
X83169Y137303D02*
D03*
X81201Y134153D02*
D03*
X35425Y101386D02*
D03*
X21096Y131299D02*
D03*
X24917Y126012D02*
D03*
X18996Y124803D02*
D03*
X37238Y167152D02*
D03*
X55216Y80118D02*
D03*
X90945Y154823D02*
D03*
X69587Y50591D02*
D03*
X76100Y75098D02*
D03*
X73228Y80709D02*
D03*
X93307Y162992D02*
D03*
X70079Y72638D02*
D03*
X69587Y68209D02*
D03*
X53740Y25295D02*
D03*
X57874Y26378D02*
D03*
X63058Y40453D02*
D03*
X72597Y125041D02*
D03*
X72736Y120571D02*
D03*
X98327Y161024D02*
D03*
X51279Y31693D02*
D03*
X50886Y188681D02*
D03*
X51673Y208366D02*
D03*
X36647Y68799D02*
D03*
X36722Y74803D02*
D03*
X58366Y92618D02*
D03*
X57480Y87303D02*
D03*
X53051Y73327D02*
D03*
X34547Y132874D02*
D03*
X58661Y110858D02*
D03*
X92028Y109252D02*
D03*
X72918Y145881D02*
D03*
X72146Y141339D02*
D03*
X104313Y119882D02*
D03*
X55413Y69095D02*
D03*
X37305Y86520D02*
D03*
X34449Y88386D02*
D03*
X30199Y24483D02*
D03*
X54331Y106595D02*
D03*
X103445Y61024D02*
D03*
X103543Y69784D02*
D03*
X105905Y125492D02*
D03*
X104626Y143504D02*
D03*
X105413Y149311D02*
D03*
X26124Y151223D02*
D03*
X3347Y82874D02*
D03*
X16732Y196161D02*
D03*
X9646Y190748D02*
D03*
X17126Y175492D02*
D03*
X17618Y180413D02*
D03*
X37303Y157480D02*
D03*
X21063Y145866D02*
D03*
X51034Y152378D02*
D03*
X68996Y165059D02*
D03*
X69427Y170953D02*
D03*
X21161Y174508D02*
D03*
X55610Y59350D02*
D03*
X54823Y99114D02*
D03*
X20669Y108465D02*
D03*
X19193Y154921D02*
D03*
X95235Y90690D02*
D03*
X85236Y85827D02*
D03*
X84252Y90059D02*
D03*
X54921Y118209D02*
D03*
Y137598D02*
D03*
Y156496D02*
D03*
X54823Y175492D02*
D03*
X2559Y77165D02*
D03*
X37419Y106693D02*
D03*
X34154Y19783D02*
D03*
X93209Y85630D02*
D03*
X35260Y147417D02*
D03*
X36417Y127165D02*
D03*
X73721Y179688D02*
D03*
X36581Y151659D02*
D03*
X37303Y189075D02*
D03*
X33366Y195177D02*
D03*
X2165Y126181D02*
D03*
X5870Y182085D02*
D03*
X2028Y120459D02*
D03*
X55174Y180896D02*
D03*
D35*
X11024Y137303D02*
D03*
D36*
X101673Y7382D02*
D03*
D37*
X68701Y77067D02*
D03*
X85630Y113681D02*
D03*
X89075Y143012D02*
D03*
X67126Y176673D02*
D03*
X56102Y44882D02*
D03*
X37588Y80325D02*
D03*
X35860Y64173D02*
D03*
X42815Y102067D02*
D03*
X10138Y90256D02*
D03*
X73032Y135335D02*
D03*
X68504Y117323D02*
D03*
X31266Y154557D02*
D03*
X38386Y178248D02*
D03*
X40945Y213681D02*
D03*
X65650Y154331D02*
D03*
X75492Y195276D02*
D03*
X68405Y212992D02*
D03*
X53740Y162402D02*
D03*
X5906Y157874D02*
D03*
X42717Y138976D02*
D03*
X65650Y139469D02*
D03*
X78839Y155512D02*
D03*
X104429Y155413D02*
D03*
X104626Y131595D02*
D03*
X91142Y94587D02*
D03*
X31791Y112697D02*
D03*
X6398Y109252D02*
D03*
X40748Y39370D02*
D03*
X40945Y58957D02*
D03*
X66535Y56004D02*
D03*
X94980Y3543D02*
D03*
D38*
X9449Y7776D02*
D03*
M02*
